<?xml version="1.0" encoding="UTF-8"?><svg id="Layer_1" xmlns="http://www.w3.org/2000/svg" viewBox="0 0 842 1005"><defs><style>.cls-1{fill:#00854d;}.cls-2,.cls-3{fill:#ed76ad;}.cls-4,.cls-5{fill:#eabf1e;}.cls-6{fill:#cf4827;}.cls-7{fill:#20b6ea;}.cls-8,.cls-9{fill:#394fa1;}.cls-10{fill:#4cc5ee;}.cls-10,.cls-9,.cls-11,.cls-5,.cls-3,.cls-12{opacity:.5;}.cls-11{fill:#dd5029;}.cls-12{fill:#00a862;}</style></defs><rect class="cls-10" x="465.28" y="512.38" width="192.31" height="525.91" rx="96.16" ry="96.16" transform="translate(594.67 -181.36) rotate(37.9)"/><rect class="cls-5" x="199.97" y="-54.87" width="192.31" height="961.57" rx="96.16" ry="96.16" transform="translate(263.83 -91.82) rotate(31.24)"/><rect class="cls-9" x="524.56" y="-44.99" width="192.31" height="576.94" rx="96.16" ry="96.16" transform="translate(1251.2 26.56) rotate(139.59)"/><rect class="cls-3" x="372.34" y="-75.8" width="192.31" height="769.26" rx="96.16" ry="96.16" transform="translate(40.44 671.62) rotate(-73.68)"/><rect class="cls-11" x="228.15" y="106.28" width="192.31" height="922.37" rx="96.16" ry="96.16" transform="translate(833.76 976.93) rotate(158.54)"/><rect class="cls-12" x="283.61" y="314.71" width="192.31" height="769.26" rx="96.16" ry="96.16" transform="translate(-233.24 1206.8) rotate(-101.12)"/><circle class="cls-1" cx="664.08" cy="643.48" r="96.16"/><circle class="cls-7" cx="458.49" cy="908.19" r="96.16"/><circle class="cls-4" cx="96.57" cy="754.99" r="96.16"/><circle class="cls-8" cx="495.82" cy="96.8" r="96.16"/><circle class="cls-2" cx="745.42" cy="390.12" r="96.16"/><ellipse class="cls-6" cx="190.59" cy="227.3" rx="96.16" ry="95.79" transform="translate(-69.68 85) rotate(-21.35)"/></svg>