<?xml version="1.0" encoding="UTF-8"?><svg xmlns="http://www.w3.org/2000/svg" viewBox="0 0 1500 1492.13"><defs><style>.cls-1{fill:#00854d;}.cls-2,.cls-3{fill:#ed76ad;}.cls-4,.cls-5{fill:#eabf1e;}.cls-6{fill:#cf4827;}.cls-7{fill:#231f20;}.cls-8{fill:#20b6ea;}.cls-9,.cls-10{fill:#394fa1;}.cls-11{fill:#4cc5ee;}.cls-11,.cls-10,.cls-12,.cls-5,.cls-3,.cls-13{opacity:.5;}.cls-12{fill:#dd5029;}.cls-13{fill:#00a862;}</style></defs><g id="Layer_1"><g><rect class="cls-11" x="367.57" y="401.92" width="151.05" height="413.05" rx="75.52" ry="75.52" transform="translate(467.2 -143.86) rotate(37.9)"/><rect class="cls-5" x="159.19" y="-43.6" width="151.05" height="755.23" rx="75.52" ry="75.52" transform="translate(207.26 -73.3) rotate(31.24)"/><rect class="cls-10" x="414.13" y="-35.84" width="151.05" height="453.14" rx="75.52" ry="75.52" transform="translate(986.13 18.58) rotate(139.59)"/><rect class="cls-3" x="294.57" y="-60.04" width="151.05" height="604.18" rx="75.52" ry="75.52" transform="translate(33.78 529.19) rotate(-73.68)"/><rect class="cls-12" x="181.33" y="82.97" width="151.05" height="724.44" rx="75.52" ry="75.52" transform="translate(658.78 765.53) rotate(158.54)"/><rect class="cls-13" x="224.88" y="246.67" width="151.05" height="604.18" rx="75.52" ry="75.52" transform="translate(-180.15 949.32) rotate(-101.12)"/><circle class="cls-1" cx="523.71" cy="504.89" r="75.52"/><circle class="cls-8" cx="362.24" cy="712.8" r="75.52"/><circle class="cls-4" cx="77.98" cy="592.47" r="75.52"/><circle class="cls-9" cx="391.55" cy="75.52" r="75.52"/><circle class="cls-2" cx="587.6" cy="305.9" r="75.52"/><ellipse class="cls-6" cx="151.82" cy="178.02" rx="75.52" ry="75.23" transform="translate(-54.4 67.5) rotate(-21.35)"/></g></g><g id="Layer_2"><g><g><path class="cls-7" d="M0,918.87H77.76v24.79H27.23v23.85h46.58v24.79H27.23v26.86h50.71v24.79H0v-125.09Z"/><path class="cls-7" d="M204.18,1043.96h-26.29l-41.7-72.87v72.87h-26.29v-125.09h26.29l41.7,73.25v-73.25h26.29v125.09Z"/><path class="cls-7" d="M278.77,975.78h45.64v47.52c0,11.46-9.2,20.66-20.66,20.66h-44.14c-11.46,0-20.66-9.2-20.66-20.66v-83.77c0-11.46,9.2-20.66,20.66-20.66h43.95c11.46,0,20.66,9.2,20.66,20.66v15.21l-26.67,4.51v-13.71c0-1.13-.75-1.88-1.88-1.88h-27.61c-1.13,0-1.88,.75-1.88,1.88v71.75c0,1.13,.75,1.88,1.88,1.88h27.8c1.13,0,1.88-.75,1.88-1.88v-17.84h-18.97v-23.67Z"/><path class="cls-7" d="M357.3,918.87h77.76v24.79h-50.52v23.85h46.58v24.79h-46.58v26.86h50.71v24.79h-77.95v-125.09Z"/><path class="cls-7" d="M467.19,918.87h27.23v100.3h49.77v24.79h-77.01v-125.09Z"/><path class="cls-7" d="M572.39,918.87h64.23c10.89,0,19.72,8.83,19.72,19.53v28.74c0,4.88-3.76,10.33-9.77,12.4,4.88,.75,10.52,5.45,10.52,12.21v32.68c0,10.71-8.83,19.53-19.72,19.53h-64.99v-125.09Zm55.22,50.15c1.13,0,1.69-.75,1.69-1.69v-22.16c0-1.13-.75-2.07-2.07-2.07h-27.61v25.92h27.99Zm-27.99,50.71h28.55c1.13,0,1.88-.75,1.88-1.88v-24.04c0-1.13-.75-1.88-2.07-1.88h-28.36v27.8Z"/><path class="cls-7" d="M690.92,918.87h77.76v24.79h-50.52v23.85h46.58v24.79h-46.58v26.86h50.71v24.79h-77.95v-125.09Z"/><path class="cls-7" d="M846.65,997.94h-18.59v46.02h-27.23v-125.09h69.49c11.46,0,20.66,9.2,20.66,20.66v37.75c0,9.39-6.2,17.28-14.84,19.91l22.16,46.77h-29.86l-21.79-46.02Zm-18.59-54.28v29.49h34c1.13,0,1.88-.75,1.88-1.88v-25.73c0-1.13-.75-1.88-1.88-1.88h-34Z"/><path class="cls-7" d="M965.37,975.78h45.64v47.52c0,11.46-9.2,20.66-20.66,20.66h-44.14c-11.46,0-20.66-9.2-20.66-20.66v-83.77c0-11.46,9.2-20.66,20.66-20.66h43.95c11.46,0,20.66,9.2,20.66,20.66v15.21l-26.67,4.51v-13.71c0-1.13-.75-1.88-1.88-1.88h-27.61c-1.13,0-1.88,.75-1.88,1.88v71.75c0,1.13,.75,1.88,1.88,1.88h27.8c1.13,0,1.88-.75,1.88-1.88v-17.84h-18.97v-23.67Z"/></g><g><path class="cls-7" d="M84.33,1189.56v21.6c0,11.46-9.2,20.66-20.66,20.66H20.66c-11.46,0-20.66-9.2-20.66-20.66v-83.77c0-11.46,9.2-20.66,20.66-20.66H63.67c11.46,0,20.66,9.2,20.66,20.66v18.78l-26.67,4.51v-17.28c0-1.13-.75-1.88-1.88-1.88H29.11c-1.13,0-1.88,.75-1.88,1.88v71.75c0,1.13,.75,1.88,1.88,1.88h26.67c1.13,0,1.88-.75,1.88-1.88v-20.1l26.67,4.51Z"/><path class="cls-7" d="M117.22,1106.73h77.76v24.79h-50.52v23.85h46.58v24.79h-46.58v26.86h50.71v24.79H117.22v-125.09Z"/><path class="cls-7" d="M321.4,1231.82h-26.29l-41.7-72.87v72.87h-26.29v-125.09h26.29l41.7,73.25v-73.25h26.29v125.09Z"/><path class="cls-7" d="M348.66,1106.73h91.84v24.79h-32.31v100.3h-27.23v-100.3h-32.31v-24.79Z"/><path class="cls-7" d="M467.75,1106.73h77.76v24.79h-50.52v23.85h46.58v24.79h-46.58v26.86h50.71v24.79h-77.95v-125.09Z"/><path class="cls-7" d="M623.47,1185.8h-18.59v46.02h-27.23v-125.09h69.49c11.46,0,20.66,9.2,20.66,20.66v37.75c0,9.39-6.2,17.28-14.84,19.91l22.16,46.77h-29.86l-21.79-46.02Zm-18.59-54.28v29.49h34c1.13,0,1.88-.75,1.88-1.88v-25.73c0-1.13-.75-1.88-1.88-1.88h-34Z"/></g><g><path class="cls-7" d="M55.82,1352.04c0,7.65-6.31,13.96-13.96,13.96H13.95c-7.65,0-13.95-6.31-13.95-13.96v-35.69c0-7.65,6.31-13.96,13.95-13.96h27.91c7.65,0,13.96,6.31,13.96,13.96v35.69Zm-19.86-32.74H19.86c-.81,0-1.34,.54-1.34,1.34v27.1c0,.81,.54,1.34,1.34,1.34h16.1c.81,0,1.34-.53,1.34-1.34v-27.1c0-.8-.54-1.34-1.34-1.34Z"/><path class="cls-7" d="M71.92,1366v-63.6h17.85v4.7c5.63-2.28,17.44-6.04,22.54-6.04,8.86,0,13.96,5.77,13.96,13.96v50.99h-18.52v-44.81c0-.8-.54-1.34-1.34-1.34-1.48,0-12.75,3.76-14.63,4.42-.8,.27-1.34,.94-1.34,1.75v39.98h-18.52Z"/><path class="cls-7" d="M192.55,1366h-19.45v-89.36h19.45v89.36Z"/><path class="cls-7" d="M211.33,1366v-63.6h17.85v4.7c5.63-2.28,17.44-6.04,22.54-6.04,8.86,0,13.96,5.77,13.96,13.96v50.99h-18.52v-44.81c0-.8-.54-1.34-1.34-1.34-1.48,0-12.75,3.76-14.63,4.42-.8,.27-1.34,.94-1.34,1.75v39.98h-18.52Z"/><path class="cls-7" d="M282.45,1366v-63.6h17.85v4.7c5.63-2.28,17.44-6.04,22.54-6.04,8.86,0,13.96,5.77,13.96,13.96v50.99h-18.52v-44.81c0-.8-.54-1.34-1.34-1.34-1.48,0-12.75,3.76-14.63,4.42-.8,.27-1.34,.94-1.34,1.75v39.98h-18.52Z"/><path class="cls-7" d="M408.04,1352.04c0,7.65-6.31,13.96-13.95,13.96h-27.91c-7.65,0-13.96-6.31-13.96-13.96v-35.69c0-7.65,6.31-13.96,13.96-13.96h27.91c7.65,0,13.95,6.31,13.95,13.96v35.69Zm-19.86-32.74h-16.1c-.81,0-1.34,.54-1.34,1.34v27.1c0,.81,.54,1.34,1.34,1.34h16.1c.8,0,1.34-.53,1.34-1.34v-27.1c0-.8-.54-1.34-1.34-1.34Z"/><path class="cls-7" d="M415.69,1302.4h18.52l11.81,42.94,11.81-42.94h18.52l-19.86,63.6h-20.93l-19.86-63.6Z"/><path class="cls-7" d="M482.65,1343.32c0-8.19,5.1-13.96,13.96-13.96,4.96,0,13.55,.94,20.8,2.28v-11.68c0-.8-.54-1.34-1.34-1.34h-13.82c-.8,0-1.34,.54-1.34,1.34v4.16l-17.44-2.95v-4.83c0-7.65,6.31-13.96,13.95-13.96h24.55c7.65,0,13.96,6.31,13.96,13.96v49.65h-17.85v-3.09c-5.64,2.28-16.37,4.43-21.47,4.43-8.86,0-13.96-5.77-13.96-13.96v-10.06Zm34.75,1.88c0-1.07-.54-1.61-1.34-1.75-4.83-.54-12.48-.94-13.95-.94-.81,0-1.34,.54-1.34,1.34v8.19c0,.81,.54,1.34,1.34,1.34,1.48,0,12.08-2.14,13.95-2.82,.81-.27,1.34-.8,1.34-1.74v-3.62Z"/><path class="cls-7" d="M545.31,1302.4h9.39v-14.22l18.52-3.22v17.44h15.03l-3.09,15.83h-11.94v30.33c0,.8,.54,1.34,1.34,1.34h11.27v16.1h-17.17c-7.65,0-13.96-6.31-13.96-13.96v-33.81h-9.39v-15.83Z"/><path class="cls-7" d="M599.65,1274.49h18.52v19.99h-18.52v-19.99Zm0,27.91h18.52v63.6h-18.52v-63.6Z"/><path class="cls-7" d="M690.09,1352.04c0,7.65-6.31,13.96-13.95,13.96h-27.91c-7.65,0-13.96-6.31-13.96-13.96v-35.69c0-7.65,6.31-13.96,13.96-13.96h27.91c7.65,0,13.95,6.31,13.95,13.96v35.69Zm-19.86-32.74h-16.1c-.81,0-1.34,.54-1.34,1.34v27.1c0,.81,.54,1.34,1.34,1.34h16.1c.8,0,1.34-.53,1.34-1.34v-27.1c0-.8-.54-1.34-1.34-1.34Z"/><path class="cls-7" d="M706.19,1366v-63.6h17.85v4.7c5.64-2.28,17.44-6.04,22.54-6.04,8.86,0,13.95,5.77,13.95,13.96v50.99h-18.52v-44.81c0-.8-.54-1.34-1.34-1.34-1.48,0-12.75,3.76-14.63,4.42-.81,.27-1.34,.94-1.34,1.75v39.98h-18.52Z"/><path class="cls-7" d="M806.69,1276.63h19.45v71.65h35.56v17.71h-55.01v-89.36Z"/><path class="cls-7" d="M873.11,1343.32c0-8.19,5.1-13.96,13.96-13.96,4.96,0,13.55,.94,20.8,2.28v-11.68c0-.8-.54-1.34-1.34-1.34h-13.82c-.8,0-1.34,.54-1.34,1.34v4.16l-17.44-2.95v-4.83c0-7.65,6.31-13.96,13.95-13.96h24.55c7.65,0,13.96,6.31,13.96,13.96v49.65h-17.85v-3.09c-5.64,2.28-16.37,4.43-21.47,4.43-8.86,0-13.96-5.77-13.96-13.96v-10.06Zm34.75,1.88c0-1.07-.54-1.61-1.34-1.75-4.83-.54-12.48-.94-13.95-.94-.81,0-1.34,.54-1.34,1.34v8.19c0,.81,.54,1.34,1.34,1.34,1.48,0,12.08-2.14,13.95-2.82,.81-.27,1.34-.8,1.34-1.74v-3.62Z"/><path class="cls-7" d="M937.12,1302.4h17.85l4.29,33.95,8.99-33.95h16.91l9.12,33.95,4.56-33.95h17.85l-11,63.6h-18.38l-10.6-37.44-10.6,37.44h-18.25l-10.73-63.6Z"/><path class="cls-7" d="M1127.38,1329.5h-14.36v22.54c0,7.65-6.17,13.96-13.82,13.96h-28.31c-7.78,0-14.09-6.31-14.09-13.96v-22.67c0-4.83,2.28-7.25,5.5-8.72-2.55-1.48-4.83-4.16-4.83-7.65v-22.41c0-7.65,6.17-13.96,14.09-13.96h25.09c7.65,0,13.82,6.31,13.82,13.96v8.45l-18.38,3.22v-7.38c0-.8-.54-1.34-1.34-1.34h-13.42c-.81,0-1.34,.54-1.34,1.34v17.17c0,.8,.54,1.34,1.34,1.34h50.05v16.1Zm-52.06,18.52c0,.8,.54,1.34,1.34,1.34h17.31c.81,0,1.34-.54,1.34-1.34v-18.52h-18.65c-.81,0-1.34,.54-1.34,1.35v17.17Z"/><path class="cls-7" d="M1212.05,1276.63c8.18,0,14.76,6.58,14.76,14.76v27.11c0,8.18-6.58,14.76-14.76,14.76h-28.45v32.74h-19.46v-89.36h47.9Zm-28.45,17.71v21.2h22.54c.81,0,1.34-.54,1.34-1.34v-18.52c0-.8-.54-1.34-1.34-1.34h-22.54Z"/><path class="cls-7" d="M1293.36,1352.04c0,7.65-6.31,13.96-13.96,13.96h-27.91c-7.65,0-13.95-6.31-13.95-13.96v-35.69c0-7.65,6.31-13.96,13.95-13.96h27.91c7.65,0,13.96,6.31,13.96,13.96v35.69Zm-19.86-32.74h-16.1c-.81,0-1.34,.54-1.34,1.34v27.1c0,.81,.54,1.34,1.34,1.34h16.1c.81,0,1.34-.53,1.34-1.34v-27.1c0-.8-.54-1.34-1.34-1.34Z"/><path class="cls-7" d="M1309.47,1276.63l18.52-3.22v92.58h-18.52v-89.36Z"/><path class="cls-7" d="M1345.43,1274.49h18.52v19.99h-18.52v-19.99Zm0,27.91h18.52v63.6h-18.52v-63.6Z"/><path class="cls-7" d="M1433.04,1343.86v8.19c0,7.65-6.31,13.96-13.95,13.96h-25.09c-7.65,0-13.96-6.31-13.96-13.96v-35.69c0-7.65,6.31-13.96,13.96-13.96h25.09c7.65,0,13.95,6.31,13.95,13.96v7.11l-18.11,3.35v-6.17c0-.8-.54-1.34-1.34-1.34h-13.69c-.81,0-1.34,.54-1.34,1.34v27.1c0,.81,.54,1.34,1.34,1.34h13.69c.8,0,1.34-.53,1.34-1.34v-7.11l18.11,3.22Z"/><path class="cls-7" d="M1480.14,1366l-7.91,25.5h-18.65l6.31-22.94-20.53-66.15h18.52l11.81,42.94,11.81-42.94h18.52l-19.86,63.6Z"/></g><g><path class="cls-7" d="M38.27,1491.24h-3.84l-30.58-51.86v51.86H0v-59.54H3.84l30.58,51.94v-51.94h3.84v59.54Z"/><path class="cls-7" d="M69.41,1465.4l17.08-33.71h4.29l-19.31,38v21.55h-4.11v-21.55l-19.22-38h4.29l16.99,33.71Z"/><path class="cls-7" d="M136.31,1431.69v49.53c0,6.08-4.03,10.01-9.92,10.01h-16.27c-5.9,0-9.92-3.94-9.92-10.01v-49.53h4.02v49.17c0,4.29,2.24,6.61,6.53,6.61h15.02c4.29,0,6.53-2.32,6.53-6.61v-49.17h4.03Z"/><path class="cls-7" d="M171.39,1451.27v-9.57c0-6.08,4.02-10.01,9.92-10.01h15.38c5.9,0,9.92,3.93,9.92,10.01v6.17l-4.03,.62v-6.44c0-4.29-2.23-6.61-6.53-6.61h-14.13c-4.29,0-6.53,2.32-6.53,6.61v8.58c0,3.94,2.59,5.54,6.26,6.62,7.51,2.14,9.39,2.68,15.91,4.56,5.27,1.52,9.3,4.02,9.3,9.74v9.66c0,6.08-4.02,10.01-9.92,10.01h-15.91c-5.9,0-9.92-3.94-9.92-10.01v-6.26l4.03-.72v6.62c0,4.29,2.23,6.61,6.53,6.61h14.66c4.29,0,6.53-2.32,6.53-6.61v-8.76c0-3.76-2.14-5.54-6.26-6.7-6.8-1.88-9.3-2.59-15.91-4.47-5.37-1.52-9.3-4.2-9.3-9.66Z"/><path class="cls-7" d="M247.77,1461.82v-2.68c0-4.29-2.23-6.62-6.53-6.62h-10.01c-4.29,0-6.53,2.32-6.53,6.62v21.81c0,4.29,2.24,6.62,6.53,6.62h10.01c4.29,0,6.53-2.32,6.53-6.62v-3.4l3.84,.63v3.04c0,6.08-4.02,10.01-9.92,10.01h-11c-5.9,0-9.92-3.94-9.92-10.01v-22.36c0-6.08,4.02-10.01,9.92-10.01h11c5.9,0,9.92,3.93,9.92,10.01v2.32l-3.84,.63Z"/><path class="cls-7" d="M291.52,1491.24v-32.9c0-4.29-2.23-6.62-6.53-6.62-2.24,0-6.53,.98-9.92,2.06-4.03,1.25-6.53,3.04-6.53,6.88v30.58h-3.93v-59.54l3.93-.72v21.91c1.61-1.25,3.49-2.14,5.99-2.86,3.49-1.07,7.87-2.06,11-2.06,5.9,0,9.92,3.94,9.92,10.02v33.26h-3.93Z"/><path class="cls-7" d="M341.07,1481.22c0,6.08-4.02,10.01-9.92,10.01h-11.89c-5.9,0-9.92-3.94-9.92-10.01v-22.36c0-6.08,4.02-10.01,9.92-10.01h11.89c5.9,0,9.92,3.93,9.92,10.01v22.36Zm-10.46-28.7h-10.82c-4.29,0-6.53,2.32-6.53,6.62v21.81c0,4.29,2.24,6.62,6.53,6.62h10.82c4.29,0,6.53-2.32,6.53-6.62v-21.81c0-4.29-2.24-6.62-6.53-6.62Z"/><path class="cls-7" d="M386.24,1481.22c0,6.08-4.02,10.01-9.92,10.01h-11.89c-5.9,0-9.92-3.94-9.92-10.01v-22.36c0-6.08,4.02-10.01,9.92-10.01h11.89c5.9,0,9.92,3.93,9.92,10.01v22.36Zm-10.46-28.7h-10.82c-4.29,0-6.53,2.32-6.53,6.62v21.81c0,4.29,2.23,6.62,6.53,6.62h10.82c4.29,0,6.53-2.32,6.53-6.62v-21.81c0-4.29-2.23-6.62-6.53-6.62Z"/><path class="cls-7" d="M400.57,1431.69l3.94-.72v60.26h-3.94v-59.54Z"/><path class="cls-7" d="M470.15,1481.22c0,6.08-4.02,10.01-9.92,10.01h-11.89c-5.9,0-9.92-3.94-9.92-10.01v-22.36c0-6.08,4.02-10.01,9.92-10.01h11.89c5.9,0,9.92,3.93,9.92,10.01v22.36Zm-10.46-28.7h-10.82c-4.29,0-6.53,2.32-6.53,6.62v21.81c0,4.29,2.24,6.62,6.53,6.62h10.82c4.29,0,6.53-2.32,6.53-6.62v-21.81c0-4.29-2.24-6.62-6.53-6.62Z"/><path class="cls-7" d="M480.46,1448.86h6.79v-7.15c0-6.08,4.02-10.01,9.92-10.01h7.6v3.58h-7.06c-4.29,0-6.53,2.32-6.53,6.61v6.98h12.96l-.45,3.49h-12.52v38.89h-3.93v-38.89h-6.79v-3.49Z"/><path class="cls-7" d="M532.97,1431.69h4.02v55.79h27.54v3.76h-31.56v-59.54Z"/><path class="cls-7" d="M574.11,1477.56c0-6.08,4.02-10.01,9.92-10.01,3.13,0,7.78,.18,11.18,1.16,2.51,.72,4.38,1.61,5.99,2.86v-12.43c0-4.29-2.23-6.62-6.53-6.62h-9.12c-4.29,0-6.53,2.32-6.53,6.62v1.79l-3.85-.62v-1.43c0-6.08,4.03-10.01,9.93-10.01h10.1c5.9,0,9.93,3.93,9.93,10.01v32.37h-3.94v-3.76c-1.61,1.25-3.49,2.15-5.99,2.86-3.49,1.07-8.05,1.79-11.18,1.79-5.9,0-9.92-3.94-9.92-10.02v-4.56Zm27.09,1.61c0-3.84-2.5-5.63-6.53-6.88-3.4-1.07-7.87-1.16-10.1-1.16-4.29,0-6.53,2.32-6.53,6.61v4.2c0,4.29,2.24,6.62,6.53,6.62,2.23,0,6.7-.72,10.1-1.79,4.02-1.25,6.53-3.04,6.53-6.89v-.71Z"/><path class="cls-7" d="M615.89,1448.86h3.85l6.97,37.01,11.89-37.01h3.76l11.89,37.01,6.98-37.01h3.84l-8.4,42.38h-4.2l-11.98-37.28-11.98,37.28h-4.2l-8.4-42.38Z"/></g></g></g></svg>