<?xml version="1.0" encoding="UTF-8" standalone="no"?>
<!DOCTYPE svg PUBLIC "-//W3C//DTD SVG 1.1//EN" "http://www.w3.org/Graphics/SVG/1.1/DTD/svg11.dtd">
<svg width="100%" height="100%" viewBox="0 0 1500 906" version="1.1" xmlns="http://www.w3.org/2000/svg" xmlns:xlink="http://www.w3.org/1999/xlink" xml:space="preserve" xmlns:serif="http://www.serif.com/" style="fill-rule:evenodd;clip-rule:evenodd;stroke-linejoin:round;stroke-miterlimit:2;">
    <g transform="matrix(1,0,0,1,-3888,-2430)">
        <g id="lf-vertical-lockup-color" transform="matrix(1,0,0,0.607186,0,2429.99)">
            <rect x="3888" y="0.01" width="1500" height="1492.13" style="fill:none;"/>
            <clipPath id="_clip1">
                <rect x="3888" y="0.01" width="1500" height="1492.13"/>
            </clipPath>
            <g clip-path="url(#_clip1)">
                <g id="lf-vertical-lockup-color.svg" transform="matrix(1,0,0,1.64694,3887.99,0.01)">
                    <g transform="matrix(8.43132,0,0,8.43132,0.01,-4.85551)">
                        <path d="M5.942,22.305L5.942,46.715L10.5,46.715L10.5,52.021L0,52.021L0,22.305L5.942,22.305Z" style="fill:rgb(153,32,103);fill-rule:nonzero;"/>
                    </g>
                    <g transform="matrix(8.43132,0,0,8.43132,0.01,-4.85551)">
                        <rect x="14.534" y="22.305" width="5.944" height="29.716" style="fill:rgb(153,32,103);"/>
                    </g>
                    <g transform="matrix(8.43132,0,0,8.43132,0.01,-4.85551)">
                        <path d="M31.218,46.928L32.705,46.928C33.426,46.928 33.765,46.588 33.765,45.866L33.765,40.474C33.765,39.753 33.426,39.413 32.705,39.413L31.218,39.413L31.218,46.928ZM32.619,27.4L31.218,27.4L31.218,34.447L32.619,34.447C33.341,34.447 33.68,34.107 33.68,33.385L33.68,28.462C33.68,27.739 33.341,27.4 32.619,27.4ZM39.665,40.474L39.665,46.502C39.665,50.197 37.84,52.021 34.147,52.021L25.317,52.021L25.317,22.305L34.062,22.305C37.755,22.305 39.581,24.131 39.581,27.824L39.581,32.24C39.581,34.786 38.689,36.06 37.119,36.654C38.901,37.163 39.665,38.31 39.665,40.474Z" style="fill:rgb(153,32,103);fill-rule:nonzero;"/>
                    </g>
                    <g transform="matrix(8.43132,0,0,8.43132,0.01,-4.85551)">
                        <path d="M51.64,27.485L50.195,27.485L50.195,35.72L51.64,35.72C52.361,35.72 52.7,35.381 52.7,34.659L52.7,28.546C52.7,27.824 52.361,27.485 51.64,27.485ZM58.686,41.79L58.686,52.021L52.743,52.021L52.743,41.833C52.743,41.112 52.403,40.772 51.682,40.772L50.195,40.772L50.195,52.021L44.252,52.021L44.252,22.305L53.125,22.305C56.817,22.305 58.644,24.131 58.644,27.824L58.644,33.555C58.644,36.102 57.709,37.376 56.096,37.97C57.922,38.479 58.686,39.626 58.686,41.79Z" style="fill:rgb(153,32,103);fill-rule:nonzero;"/>
                    </g>
                    <g transform="matrix(8.43132,0,0,8.43132,0.01,-4.85551)">
                        <path d="M68.875,42.513L71.549,42.513L70.191,29.523L68.875,42.513ZM78.427,52.021L72.526,52.021L72.06,47.691L68.323,47.691L67.898,52.021L62.508,52.021L66.414,22.305L74.521,22.305L78.427,52.021Z" style="fill:rgb(153,32,103);fill-rule:nonzero;"/>
                    </g>
                    <g transform="matrix(8.43132,0,0,8.43132,0.01,-4.85551)">
                        <path d="M89.996,27.485L88.551,27.485L88.551,35.72L89.996,35.72C90.717,35.72 91.057,35.381 91.057,34.659L91.057,28.546C91.057,27.824 90.717,27.485 89.996,27.485ZM97.041,41.79L97.041,52.021L91.099,52.021L91.099,41.833C91.099,41.112 90.759,40.772 90.038,40.772L88.551,40.772L88.551,52.021L82.608,52.021L82.608,22.305L91.481,22.305C95.173,22.305 97,24.131 97,27.824L97,33.555C97,36.102 96.066,37.376 94.452,37.97C96.278,38.479 97.041,39.626 97.041,41.79Z" style="fill:rgb(153,32,103);fill-rule:nonzero;"/>
                    </g>
                    <g transform="matrix(8.43132,0,0,8.43132,0.01,-4.85551)">
                        <path d="M110.269,22.305L115.915,22.305L110.906,41.451L110.906,52.021L104.962,52.021L104.962,41.875L99.953,22.305L106.15,22.305L108.146,32.367L110.269,22.305Z" style="fill:rgb(153,32,103);fill-rule:nonzero;"/>
                    </g>
                    <g transform="matrix(8.43132,0,0,8.43132,0.01,-4.85551)">
                        <path d="M10.5,56.327L10.5,61.634L5.942,61.634L5.942,68.596L10.287,68.596L10.287,73.902L5.942,73.902L5.942,86.044L-0,86.044L-0,56.327L10.5,56.327Z" style="fill:rgb(114,34,87);fill-rule:nonzero;"/>
                    </g>
                    <g transform="matrix(8.43132,0,0,8.43132,0.01,-4.85551)">
                        <path d="M29.18,80.779C29.18,84.473 27.354,86.298 23.661,86.298L20.052,86.298C16.359,86.298 14.534,84.473 14.534,80.779L14.534,56.327L20.477,56.327L20.477,80.142C20.477,80.864 20.816,81.204 21.538,81.204L22.174,81.204C22.896,81.204 23.236,80.864 23.236,80.142L23.236,56.327L29.18,56.327L29.18,80.779Z" style="fill:rgb(114,34,87);fill-rule:nonzero;"/>
                    </g>
                    <g transform="matrix(8.43132,0,0,8.43132,0.01,-4.85551)">
                        <path d="M36.228,86.044L36.228,61.634L32.62,61.634L32.62,56.327L45.779,56.327L45.779,61.634L42.171,61.634L42.171,86.044L36.228,86.044Z" style="fill:rgb(114,34,87);fill-rule:nonzero;"/>
                    </g>
                    <g transform="matrix(8.43132,0,0,8.43132,0.01,-4.85551)">
                        <path d="M63.866,80.779C63.866,84.473 62.04,86.298 58.347,86.298L54.738,86.298C51.045,86.298 49.22,84.473 49.22,80.779L49.22,56.327L55.163,56.327L55.163,80.142C55.163,80.864 55.503,81.204 56.224,81.204L56.861,81.204C57.582,81.204 57.922,80.864 57.922,80.142L57.922,56.327L63.866,56.327L63.866,80.779Z" style="fill:rgb(114,34,87);fill-rule:nonzero;"/>
                    </g>
                    <g transform="matrix(8.43132,0,0,8.43132,0.01,-4.85551)">
                        <path d="M75.33,61.507L73.886,61.507L73.886,69.742L75.33,69.742C76.051,69.742 76.391,69.402 76.391,68.681L76.391,62.568C76.391,61.846 76.051,61.507 75.33,61.507ZM82.376,75.812L82.376,86.044L76.433,86.044L76.433,75.855C76.433,75.134 76.093,74.795 75.372,74.795L73.886,74.795L73.886,86.044L67.943,86.044L67.943,56.327L76.815,56.327C80.508,56.327 82.334,58.153 82.334,61.846L82.334,67.578C82.334,70.124 81.4,71.398 79.786,71.992C81.612,72.501 82.376,73.647 82.376,75.812Z" style="fill:rgb(114,34,87);fill-rule:nonzero;"/>
                    </g>
                    <g transform="matrix(8.43132,0,0,8.43132,0.01,-4.85551)">
                        <path d="M115.28,75.304L115.28,80.779C115.28,84.473 113.455,86.298 109.761,86.298L106.45,86.298C102.757,86.298 100.932,84.473 100.932,80.779L100.932,74.455L106.748,74.455L106.748,80.228C106.748,80.949 107.087,81.289 107.809,81.289L108.36,81.289C109.083,81.289 109.421,80.949 109.421,80.228L109.421,76.662C109.421,75.728 109.125,75.262 108.403,74.751L103.31,70.972C101.483,69.657 100.932,68.427 100.932,66.304L100.932,61.592C100.932,57.899 102.757,56.073 106.45,56.073L109.677,56.073C113.37,56.073 115.194,57.899 115.194,61.592L115.194,67.025L109.379,67.025L109.379,62.144C109.379,61.423 109.039,61.083 108.318,61.083L107.851,61.083C107.129,61.083 106.79,61.423 106.79,62.144L106.79,64.945C106.79,65.879 107.087,66.346 107.809,66.856L112.902,70.635C114.727,71.95 115.28,73.096 115.28,75.304Z" style="fill:rgb(114,34,87);fill-rule:nonzero;"/>
                    </g>
                    <g transform="matrix(8.43132,0,0,8.43132,0.01,-4.85551)">
                        <path d="M97.05,56.327L97.05,61.634L92.31,61.634L92.31,68.3L96.839,68.3L96.839,73.605L92.31,73.605L92.31,80.737L97.136,80.737L97.136,86.044L86.368,86.044L86.368,56.327L97.05,56.327Z" style="fill:rgb(114,34,87);fill-rule:nonzero;"/>
                    </g>
                    <g transform="matrix(8.43132,0,0,8.43132,0.01,-4.85551)">
                        <path d="M164.992,39.118L139.161,39.118L139.161,13.287L126.246,0.371L126.246,52.033L177.908,52.033L164.992,39.118Z" style="fill:rgb(153,32,103);fill-rule:nonzero;"/>
                    </g>
                    <g transform="matrix(8.43132,0,0,8.43132,0.01,-4.85551)">
                        <path d="M143.467,90.78L160.687,73.559L143.467,73.559L143.467,90.78Z" style="fill:rgb(114,34,87);fill-rule:nonzero;"/>
                    </g>
                    <g transform="matrix(8.43132,0,0,8.43132,0.01,-4.85551)">
                        <path d="M126.246,56.339L126.246,108L139.161,95.085L139.161,69.254L164.992,69.254L177.908,56.339L126.246,56.339Z" style="fill:rgb(114,34,87);fill-rule:nonzero;"/>
                    </g>
                </g>
            </g>
        </g>
    </g>
</svg>
