<?xml version="1.0" encoding="UTF-8"?><svg id="Layer_3" xmlns="http://www.w3.org/2000/svg" viewBox="0 0 1500 452"><defs><style>.cls-1{fill:#fff;}.cls-2{opacity:.5;}</style></defs><g><path class="cls-1" d="m375.58,22.13h58.27v18.58h-37.86v17.87h34.9v18.58h-34.9v20.13h38v18.58h-58.41V22.13Z"/><path class="cls-1" d="m528.58,115.87h-19.7l-31.24-54.61v54.61h-19.7V22.13h19.7l31.24,54.89V22.13h19.7v93.73Z"/><path class="cls-1" d="m584.47,64.78h34.2v35.61c0,8.59-6.9,15.48-15.48,15.48h-33.07c-8.59,0-15.48-6.9-15.48-15.48v-62.77c0-8.59,6.9-15.48,15.48-15.48h32.93c8.59,0,15.48,6.9,15.48,15.48v11.4l-19.99,3.38v-10.27c0-.84-.56-1.41-1.41-1.41h-20.69c-.84,0-1.41.56-1.41,1.41v53.76c0,.84.56,1.41,1.41,1.41h20.83c.84,0,1.41-.56,1.41-1.41v-13.37h-14.21v-17.73Z"/><path class="cls-1" d="m643.32,22.13h58.27v18.58h-37.86v17.87h34.9v18.58h-34.9v20.13h38v18.58h-58.41V22.13Z"/><path class="cls-1" d="m725.67,22.13h20.41v75.16h37.3v18.58h-57.7V22.13Z"/><path class="cls-1" d="m804.49,22.13h48.13c8.16,0,14.78,6.61,14.78,14.64v21.53c0,3.66-2.81,7.74-7.32,9.29,3.66.56,7.88,4.08,7.88,9.15v24.49c0,8.02-6.61,14.64-14.78,14.64h-48.7V22.13Zm41.38,37.58c.84,0,1.27-.56,1.27-1.27v-16.61c0-.84-.56-1.55-1.55-1.55h-20.69v19.42h20.97Zm-20.97,38h21.39c.84,0,1.41-.56,1.41-1.41v-18.01c0-.84-.56-1.41-1.55-1.41h-21.25v20.83Z"/><path class="cls-1" d="m893.32,22.13h58.27v18.58h-37.86v17.87h34.9v18.58h-34.9v20.13h38v18.58h-58.41V22.13Z"/><path class="cls-1" d="m1010.01,81.39h-13.93v34.48h-20.41V22.13h52.07c8.59,0,15.48,6.9,15.48,15.48v28.29c0,7.04-4.64,12.95-11.12,14.92l16.61,35.04h-22.38l-16.33-34.48Zm-13.93-40.67v22.1h25.47c.84,0,1.41-.56,1.41-1.41v-19.28c0-.84-.56-1.41-1.41-1.41h-25.47Z"/><path class="cls-1" d="m1098.97,64.78h34.2v35.61c0,8.59-6.9,15.48-15.48,15.48h-33.07c-8.59,0-15.48-6.9-15.48-15.48v-62.77c0-8.59,6.9-15.48,15.48-15.48h32.93c8.59,0,15.48,6.9,15.48,15.48v11.4l-19.99,3.38v-10.27c0-.84-.56-1.41-1.41-1.41h-20.69c-.84,0-1.41.56-1.41,1.41v53.76c0,.84.56,1.41,1.41,1.41h20.83c.84,0,1.41-.56,1.41-1.41v-13.37h-14.21v-17.73Z"/></g><g><path class="cls-1" d="m438.77,224.97v16.19c0,8.59-6.9,15.48-15.48,15.48h-32.23c-8.59,0-15.48-6.9-15.48-15.48v-62.77c0-8.59,6.9-15.48,15.48-15.48h32.23c8.59,0,15.48,6.9,15.48,15.48v14.07l-19.99,3.38v-12.95c0-.84-.56-1.41-1.41-1.41h-19.99c-.84,0-1.41.56-1.41,1.41v53.76c0,.84.56,1.41,1.41,1.41h19.99c.84,0,1.41-.56,1.41-1.41v-15.06l19.99,3.38Z"/><path class="cls-1" d="m463.42,162.9h58.27v18.58h-37.86v17.87h34.9v18.58h-34.9v20.13h38v18.58h-58.41v-93.73Z"/><path class="cls-1" d="m616.42,256.64h-19.7l-31.24-54.61v54.61h-19.7v-93.73h19.7l31.24,54.89v-54.89h19.7v93.73Z"/><path class="cls-1" d="m636.84,162.9h68.82v18.58h-24.21v75.16h-20.41v-75.16h-24.21v-18.58Z"/><path class="cls-1" d="m726.09,162.9h58.27v18.58h-37.86v17.87h34.9v18.58h-34.9v20.13h38v18.58h-58.41v-93.73Z"/><path class="cls-1" d="m842.77,222.15h-13.93v34.48h-20.41v-93.73h52.07c8.59,0,15.48,6.9,15.48,15.48v28.29c0,7.04-4.64,12.95-11.12,14.92l16.61,35.04h-22.38l-16.33-34.48Zm-13.93-40.67v22.1h25.47c.84,0,1.41-.56,1.41-1.41v-19.28c0-.84-.56-1.41-1.41-1.41h-25.47Z"/></g><g><path class="cls-1" d="m417.41,346.73c0,5.73-4.73,10.46-10.46,10.46h-20.91c-5.73,0-10.46-4.73-10.46-10.46v-26.74c0-5.73,4.72-10.46,10.46-10.46h20.91c5.73,0,10.46,4.73,10.46,10.46v26.74Zm-14.88-24.53h-12.06c-.6,0-1.01.4-1.01,1v20.31c0,.61.4,1,1.01,1h12.06c.6,0,1-.4,1-1v-20.31c0-.6-.4-1-1-1Z"/><path class="cls-1" d="m429.47,357.18v-47.66h13.37v3.52c4.22-1.71,13.07-4.52,16.89-4.52,6.64,0,10.46,4.32,10.46,10.46v38.21h-13.88v-33.58c0-.6-.4-1-1-1-1.11,0-9.55,2.81-10.96,3.32-.6.2-1,.71-1,1.31v29.96h-13.87Z"/><path class="cls-1" d="m519.86,357.18h-14.58v-66.96h14.58v66.96Z"/><path class="cls-1" d="m533.94,357.18v-47.66h13.37v3.52c4.22-1.71,13.07-4.52,16.89-4.52,6.64,0,10.46,4.32,10.46,10.46v38.21h-13.88v-33.58c0-.6-.4-1-1-1-1.11,0-9.55,2.81-10.96,3.32-.6.2-1,.71-1,1.31v29.96h-13.87Z"/><path class="cls-1" d="m587.23,357.18v-47.66h13.37v3.52c4.22-1.71,13.07-4.52,16.89-4.52,6.64,0,10.46,4.32,10.46,10.46v38.21h-13.88v-33.58c0-.6-.4-1-1-1-1.11,0-9.55,2.81-10.96,3.32-.6.2-1,.71-1,1.31v29.96h-13.87Z"/><path class="cls-1" d="m681.34,346.73c0,5.73-4.72,10.46-10.46,10.46h-20.91c-5.73,0-10.46-4.73-10.46-10.46v-26.74c0-5.73,4.73-10.46,10.46-10.46h20.91c5.73,0,10.46,4.73,10.46,10.46v26.74Zm-14.88-24.53h-12.07c-.6,0-1,.4-1,1v20.31c0,.61.4,1,1,1h12.07c.6,0,1-.4,1-1v-20.31c0-.6-.4-1-1-1Z"/><path class="cls-1" d="m687.07,309.52h13.87l8.85,32.17,8.85-32.17h13.87l-14.88,47.66h-15.69l-14.88-47.66Z"/><path class="cls-1" d="m737.25,340.19c0-6.13,3.82-10.46,10.46-10.46,3.72,0,10.15.7,15.58,1.71v-8.75c0-.6-.4-1-1.01-1h-10.36c-.6,0-1,.4-1,1v3.12l-13.07-2.21v-3.62c0-5.73,4.72-10.46,10.46-10.46h18.4c5.73,0,10.46,4.73,10.46,10.46v37.2h-13.37v-2.31c-4.22,1.71-12.27,3.32-16.09,3.32-6.64,0-10.46-4.32-10.46-10.46v-7.54Zm26.04,1.41c0-.81-.4-1.21-1.01-1.31-3.62-.4-9.35-.7-10.46-.7-.6,0-1.01.4-1.01,1v6.13c0,.61.4,1,1.01,1,1.11,0,9.05-1.61,10.46-2.11.6-.2,1.01-.6,1.01-1.31v-2.71Z"/><path class="cls-1" d="m784.2,309.52h7.04v-10.66l13.88-2.41v13.07h11.26l-2.31,11.86h-8.95v22.72c0,.6.4,1,1,1h8.45v12.06h-12.87c-5.73,0-10.46-4.73-10.46-10.46v-25.34h-7.04v-11.86Z"/><path class="cls-1" d="m824.92,288.61h13.88v14.98h-13.88v-14.98Zm0,20.91h13.88v47.66h-13.88v-47.66Z"/><path class="cls-1" d="m892.69,346.73c0,5.73-4.72,10.46-10.46,10.46h-20.91c-5.73,0-10.46-4.73-10.46-10.46v-26.74c0-5.73,4.73-10.46,10.46-10.46h20.91c5.73,0,10.46,4.73,10.46,10.46v26.74Zm-14.88-24.53h-12.07c-.6,0-1,.4-1,1v20.31c0,.61.4,1,1,1h12.07c.6,0,1-.4,1-1v-20.31c0-.6-.4-1-1-1Z"/><path class="cls-1" d="m904.76,357.18v-47.66h13.37v3.52c4.22-1.71,13.07-4.52,16.89-4.52,6.64,0,10.46,4.32,10.46,10.46v38.21h-13.87v-33.58c0-.6-.4-1-1-1-1.11,0-9.55,2.81-10.96,3.32-.6.2-1,.71-1,1.31v29.96h-13.88Z"/><path class="cls-1" d="m980.07,290.22h14.58v53.69h26.64v13.27h-41.22v-66.96Z"/><path class="cls-1" d="m1029.84,340.19c0-6.13,3.82-10.46,10.46-10.46,3.72,0,10.15.7,15.58,1.71v-8.75c0-.6-.4-1-1.01-1h-10.36c-.6,0-1,.4-1,1v3.12l-13.07-2.21v-3.62c0-5.73,4.72-10.46,10.46-10.46h18.4c5.73,0,10.46,4.73,10.46,10.46v37.2h-13.37v-2.31c-4.22,1.71-12.27,3.32-16.09,3.32-6.64,0-10.46-4.32-10.46-10.46v-7.54Zm26.04,1.41c0-.81-.4-1.21-1.01-1.31-3.62-.4-9.35-.7-10.46-.7-.6,0-1.01.4-1.01,1v6.13c0,.61.4,1,1.01,1,1.11,0,9.05-1.61,10.46-2.11.6-.2,1.01-.6,1.01-1.31v-2.71Z"/><path class="cls-1" d="m1077.8,309.52h13.37l3.22,25.44,6.74-25.44h12.67l6.84,25.44,3.42-25.44h13.37l-8.24,47.66h-13.77l-7.94-28.05-7.94,28.05h-13.67l-8.04-47.66Z"/><path class="cls-1" d="m1220.37,329.83h-10.76v16.89c0,5.73-4.62,10.46-10.36,10.46h-21.21c-5.83,0-10.56-4.73-10.56-10.46v-16.99c0-3.62,1.71-5.43,4.12-6.54-1.91-1.11-3.62-3.12-3.62-5.73v-16.79c0-5.73,4.62-10.46,10.56-10.46h18.8c5.73,0,10.36,4.73,10.36,10.46v6.33l-13.77,2.42v-5.53c0-.6-.4-1-1-1h-10.05c-.6,0-1,.4-1,1v12.87c0,.6.4,1,1,1h37.5v12.06Zm-39.01,13.88c0,.6.4,1,1,1h12.97c.6,0,1.01-.4,1.01-1v-13.88h-13.98c-.6,0-1,.4-1,1.01v12.87Z"/><path class="cls-1" d="m1283.82,290.22c6.13,0,11.06,4.93,11.06,11.06v20.31c0,6.13-4.93,11.06-11.06,11.06h-21.32v24.53h-14.58v-66.96h35.9Zm-21.32,13.27v15.89h16.89c.6,0,1.01-.4,1.01-1v-13.88c0-.6-.4-1-1.01-1h-16.89Z"/><path class="cls-1" d="m1344.75,346.73c0,5.73-4.73,10.46-10.46,10.46h-20.91c-5.73,0-10.46-4.73-10.46-10.46v-26.74c0-5.73,4.72-10.46,10.46-10.46h20.91c5.73,0,10.46,4.73,10.46,10.46v26.74Zm-14.88-24.53h-12.06c-.6,0-1.01.4-1.01,1v20.31c0,.61.4,1,1.01,1h12.06c.6,0,1-.4,1-1v-20.31c0-.6-.4-1-1-1Z"/><path class="cls-1" d="m1356.82,290.22l13.87-2.41v69.38h-13.87v-66.96Z"/><path class="cls-1" d="m1383.76,288.61h13.88v14.98h-13.88v-14.98Zm0,20.91h13.88v47.66h-13.88v-47.66Z"/><path class="cls-1" d="m1449.42,340.59v6.13c0,5.73-4.72,10.46-10.46,10.46h-18.8c-5.73,0-10.46-4.73-10.46-10.46v-26.74c0-5.73,4.73-10.46,10.46-10.46h18.8c5.73,0,10.46,4.73,10.46,10.46v5.33l-13.57,2.51v-4.62c0-.6-.4-1-1-1h-10.26c-.6,0-1,.4-1,1v20.31c0,.61.4,1,1,1h10.26c.6,0,1-.4,1-1v-5.33l13.57,2.41Z"/><path class="cls-1" d="m1484.71,357.18l-5.93,19.1h-13.98l4.72-17.19-15.38-49.57h13.88l8.85,32.17,8.85-32.17h13.87l-14.88,47.66Z"/></g><g><path class="cls-1" d="m404.25,451.03h-2.88l-22.91-38.86v38.86h-2.88v-44.62h2.88l22.91,38.92v-38.92h2.88v44.62Z"/><path class="cls-1" d="m427.59,431.67l12.8-25.26h3.22l-14.47,28.47v16.15h-3.08v-16.15l-14.4-28.47h3.22l12.73,25.26Z"/><path class="cls-1" d="m477.72,406.41v37.12c0,4.55-3.02,7.5-7.44,7.5h-12.19c-4.42,0-7.44-2.95-7.44-7.5v-37.12h3.01v36.85c0,3.21,1.68,4.96,4.89,4.96h11.25c3.22,0,4.89-1.74,4.89-4.96v-36.85h3.02Z"/><path class="cls-1" d="m504.01,421.08v-7.17c0-4.56,3.01-7.5,7.44-7.5h11.52c4.42,0,7.44,2.95,7.44,7.5v4.62l-3.02.47v-4.82c0-3.21-1.67-4.96-4.89-4.96h-10.59c-3.22,0-4.89,1.74-4.89,4.96v6.43c0,2.95,1.94,4.15,4.69,4.96,5.63,1.61,7.03,2.01,11.93,3.42,3.95,1.14,6.97,3.01,6.97,7.3v7.24c0,4.55-3.01,7.5-7.44,7.5h-11.93c-4.42,0-7.44-2.95-7.44-7.5v-4.69l3.02-.54v4.96c0,3.21,1.67,4.96,4.89,4.96h10.99c3.22,0,4.89-1.74,4.89-4.96v-6.57c0-2.81-1.61-4.15-4.69-5.02-5.09-1.41-6.97-1.94-11.93-3.35-4.02-1.14-6.97-3.15-6.97-7.24Z"/><path class="cls-1" d="m561.25,428.99v-2.01c0-3.22-1.67-4.96-4.89-4.96h-7.5c-3.22,0-4.89,1.74-4.89,4.96v16.35c0,3.22,1.68,4.96,4.89,4.96h7.5c3.22,0,4.89-1.74,4.89-4.96v-2.55l2.88.47v2.28c0,4.55-3.01,7.5-7.44,7.5h-8.24c-4.42,0-7.44-2.95-7.44-7.5v-16.75c0-4.56,3.01-7.5,7.44-7.5h8.24c4.42,0,7.44,2.95,7.44,7.5v1.74l-2.88.47Z"/><path class="cls-1" d="m594.02,451.03v-24.65c0-3.22-1.67-4.96-4.89-4.96-1.68,0-4.89.74-7.44,1.54-3.02.94-4.89,2.28-4.89,5.16v22.91h-2.95v-44.62l2.95-.54v16.41c1.21-.94,2.61-1.61,4.49-2.14,2.61-.81,5.89-1.54,8.24-1.54,4.42,0,7.44,2.95,7.44,7.51v24.92h-2.95Z"/><path class="cls-1" d="m631.16,443.53c0,4.55-3.01,7.5-7.44,7.5h-8.91c-4.42,0-7.44-2.95-7.44-7.5v-16.75c0-4.56,3.01-7.5,7.44-7.5h8.91c4.42,0,7.44,2.95,7.44,7.5v16.75Zm-7.84-21.51h-8.11c-3.22,0-4.89,1.74-4.89,4.96v16.35c0,3.22,1.68,4.96,4.89,4.96h8.11c3.22,0,4.89-1.74,4.89-4.96v-16.35c0-3.22-1.68-4.96-4.89-4.96Z"/><path class="cls-1" d="m665.01,443.53c0,4.55-3.01,7.5-7.44,7.5h-8.91c-4.42,0-7.44-2.95-7.44-7.5v-16.75c0-4.56,3.01-7.5,7.44-7.5h8.91c4.42,0,7.44,2.95,7.44,7.5v16.75Zm-7.84-21.51h-8.11c-3.22,0-4.89,1.74-4.89,4.96v16.35c0,3.22,1.67,4.96,4.89,4.96h8.11c3.22,0,4.89-1.74,4.89-4.96v-16.35c0-3.22-1.67-4.96-4.89-4.96Z"/><path class="cls-1" d="m675.75,406.41l2.95-.54v45.16h-2.95v-44.62Z"/><path class="cls-1" d="m727.88,443.53c0,4.55-3.01,7.5-7.44,7.5h-8.91c-4.42,0-7.44-2.95-7.44-7.5v-16.75c0-4.56,3.01-7.5,7.44-7.5h8.91c4.42,0,7.44,2.95,7.44,7.5v16.75Zm-7.84-21.51h-8.11c-3.22,0-4.89,1.74-4.89,4.96v16.35c0,3.22,1.68,4.96,4.89,4.96h8.11c3.22,0,4.89-1.74,4.89-4.96v-16.35c0-3.22-1.68-4.96-4.89-4.96Z"/><path class="cls-1" d="m735.61,419.27h5.09v-5.36c0-4.56,3.01-7.5,7.44-7.5h5.7v2.68h-5.29c-3.22,0-4.89,1.74-4.89,4.96v5.23h9.71l-.34,2.61h-9.38v29.14h-2.95v-29.14h-5.09v-2.61Z"/><path class="cls-1" d="m774.95,406.41h3.01v41.8h20.64v2.81h-23.65v-44.62Z"/><path class="cls-1" d="m805.79,440.78c0-4.56,3.01-7.5,7.44-7.5,2.35,0,5.83.13,8.37.87,1.88.54,3.28,1.2,4.49,2.14v-9.31c0-3.22-1.67-4.96-4.89-4.96h-6.83c-3.22,0-4.89,1.74-4.89,4.96v1.34l-2.88-.47v-1.07c0-4.56,3.02-7.5,7.44-7.5h7.57c4.42,0,7.44,2.95,7.44,7.5v24.25h-2.95v-2.81c-1.21.94-2.61,1.61-4.49,2.14-2.61.81-6.03,1.34-8.37,1.34-4.42,0-7.44-2.95-7.44-7.51v-3.42Zm20.3,1.21c0-2.88-1.88-4.22-4.89-5.16-2.55-.81-5.9-.87-7.57-.87-3.22,0-4.89,1.74-4.89,4.96v3.15c0,3.22,1.68,4.96,4.89,4.96,1.67,0,5.02-.54,7.57-1.34,3.01-.94,4.89-2.28,4.89-5.16v-.53Z"/><path class="cls-1" d="m837.09,419.27h2.88l5.23,27.74,8.91-27.74h2.81l8.91,27.74,5.23-27.74h2.88l-6.3,31.76h-3.15l-8.98-27.94-8.98,27.94h-3.15l-6.3-31.76Z"/></g><g><g class="cls-2"><path class="cls-1" d="m36.69,321.46c-6.42,0-12.91-1.7-18.8-5.27-17.14-10.4-22.61-32.73-12.21-49.87L156.44,17.78c10.4-17.14,32.72-22.62,49.87-12.21,17.14,10.4,22.61,32.73,12.21,49.87l-150.76,248.53c-6.83,11.26-18.81,17.48-31.08,17.48Z"/></g><g class="cls-2"><path class="cls-1" d="m281.75,183.68c-10.28,0-20.49-4.34-27.67-12.78l-94.25-110.76c-13-15.27-11.15-38.19,4.12-51.18,15.27-12.99,38.19-11.15,51.18,4.12l94.25,110.76c13,15.27,11.15,38.19-4.12,51.18-6.83,5.81-15.19,8.66-23.51,8.66Z"/></g><g class="cls-2"><path class="cls-1" d="m281.75,183.69c-3.38,0-6.83-.48-10.24-1.48L62,120.73c-19.24-5.65-30.26-25.82-24.62-45.06s25.82-30.26,45.06-24.61l209.5,61.48c19.24,5.65,30.26,25.82,24.62,45.06-4.64,15.83-19.12,26.09-34.82,26.09Z"/></g><g class="cls-2"><path class="cls-1" d="m173.4,379.31c-14.49,0-28.17-8.73-33.8-23.02L38.44,99.18c-7.34-18.66,1.83-39.74,20.49-47.08,18.66-7.34,39.74,1.83,47.08,20.49l101.16,257.1c7.34,18.66-1.83,39.74-20.49,47.08-4.36,1.72-8.86,2.53-13.28,2.53Z"/></g><g class="cls-2"><path class="cls-1" d="m173.36,379.3c-7.78,0-15.62-2.49-22.24-7.63-15.84-12.3-18.71-35.11-6.41-50.95l77.63-99.96c12.3-15.84,35.11-18.71,50.95-6.41,15.84,12.3,18.71,35.11,6.41,50.95l-77.63,99.96c-7.16,9.22-17.87,14.04-28.7,14.04Z"/></g><g class="cls-2"><path class="cls-1" d="m36.69,321.46c-17,0-32.19-12-35.59-29.31-3.87-19.68,8.95-38.76,28.63-42.63l214.29-42.11c19.68-3.86,38.76,8.95,42.63,28.63,3.87,19.68-8.95,38.76-28.63,42.63l-214.29,42.11c-2.36.46-4.72.69-7.04.69Z"/></g><g><circle class="cls-1" cx="251.02" cy="243.04" r="36.31"/><circle class="cls-1" cx="173.39" cy="342.99" r="36.31"/><circle class="cls-1" cx="36.72" cy="285.14" r="36.31"/><circle class="cls-1" cx="187.48" cy="36.61" r="36.31"/><circle class="cls-1" cx="281.73" cy="147.37" r="36.31"/><ellipse class="cls-1" cx="72.23" cy="85.89" rx="36.31" ry="36.17" transform="translate(-26.32 32.2) rotate(-21.35)"/></g></g></svg>