<?xml version="1.0" encoding="UTF-8"?><svg id="Layer_1" xmlns="http://www.w3.org/2000/svg" viewBox="0 0 294.42 55.42"><defs><style>.cls-1{fill:#fff;}</style></defs><g><path class="cls-1" d="M192.78,11.95h6.94v25.21h15.72v6.31h-22.65V11.95Z"/><path class="cls-1" d="M230.56,11.72h6.39l13.51,31.75h-7.24l-2.88-7.07h-13.33l-2.88,7.07h-7.07l13.51-31.75Zm7.3,18.55l-4.19-10.22-4.19,10.22h8.38Z"/><path class="cls-1" d="M246.6,11.95h7.43l6.53,21.34,7.07-21.44h5.95l7.07,21.44,6.53-21.34h7.25l-10.76,31.74h-6.03l-7.12-20.62-7.11,20.62h-6.04l-10.76-31.74Z"/></g><rect class="cls-1" x="177.1" width="1.21" height="55.42"/><g><g><path class="cls-1" d="M69.79,11.72h6.39l14.75,19.38V11.72h6.84v31.48h-5.89l-15.24-20.01v20.01h-6.84V11.72Z"/><path class="cls-1" d="M113.31,30.79l-12.1-19.06h8.09l7.51,12.64,7.65-12.64h7.87l-12.1,18.93v12.54h-6.92v-12.41Z"/><path class="cls-1" d="M135.3,29.71V11.72h6.92V29.53c0,5.12,2.56,7.78,6.79,7.78s6.79-2.57,6.79-7.55V11.72h6.93V29.49c0,9.53-5.35,14.21-13.81,14.21s-13.62-4.72-13.62-13.98Z"/></g><path class="cls-1" d="M0,0V55.42H55.41V0H0ZM34.22,12.23s.07-.08,.12-.02c.41,.48,2.01,4.52,1.13,6.8-.56,1.46-6.82,1.65-8.43,9.34-.02,.07-.1,.09-.13,0-2.78-6.49,2.66-10.52,4.08-11.67,1.01-.82,2.38-2.59,3.23-4.45Zm-5.53-3.44c.02-.08,.08-.12,.14-.04,.43,.53,1.73,4.23,1.73,6.51,0,.16,.04,.29-.12,.44-1.11,1.01-7.9,5.7-4.5,12.95,.04,.08-.05,.13-.11,.09-5.47-3.58-6.67-7.38-1.43-13.61,.62-.73,3.71-4.09,4.29-6.34Zm-11.4,10.57c1.68-2.79,2.79-5.22,2.82-6.19,0-.1,.09-.12,.19,.03,.38,.58,1.31,2.72,1.41,3.57,.01,.14,0,.27-.05,.34-2.35,3.56-2.92,8.4,2.76,11.79,.08,.05,.06,.13-.02,.13-8.9-.25-8.89-6.7-7.1-9.68Zm9.59,29.58c-.19,.58-1.03,.39-1.09,0l-1.68-15.36h4.71l-1.94,15.36Zm3.58-16.46h-8v-2.33h8v2.33Zm-2.31-3.46s-.11-.04-.09-.11c.34-2.86,2.31-6.04,5.57-7.44,3.66-1.57,4.98-4.15,5.28-4.87,.05-.14,.15-.12,.14,.08-.04,3.46-.76,12.7-10.9,12.33Z"/></g></svg>